<svg id="visual" viewBox="0 0 900 600" width="900" height="600" xmlns="http://www.w3.org/2000/svg" xmlns:xlink="http://www.w3.org/1999/xlink" version="1.1"><rect x="0" y="0" width="900" height="600" fill="#222831"></rect><path d="M0 358L25 368.3C50 378.7 100 399.3 150 405.7C200 412 250 404 300 392.8C350 381.7 400 367.3 450 363C500 358.7 550 364.3 600 367.8C650 371.3 700 372.7 750 376.8C800 381 850 388 875 391.5L900 395L900 601L875 601C850 601 800 601 750 601C700 601 650 601 600 601C550 601 500 601 450 601C400 601 350 601 300 601C250 601 200 601 150 601C100 601 50 601 25 601L0 601Z" fill="#393e46"></path><path d="M0 441L25 455C50 469 100 497 150 497C200 497 250 469 300 465C350 461 400 481 450 482C500 483 550 465 600 457.5C650 450 700 453 750 456.5C800 460 850 464 875 466L900 468L900 601L875 601C850 601 800 601 750 601C700 601 650 601 600 601C550 601 500 601 450 601C400 601 350 601 300 601C250 601 200 601 150 601C100 601 50 601 25 601L0 601Z" fill="#fd7014"></path></svg>